<?xml version="1.0" encoding="utf-8"?>
<!-- Generator: Adobe Illustrator 24.0.3, SVG Export Plug-In . SVG Version: 6.00 Build 0)  -->
<svg version="1.1" xmlns="http://www.w3.org/2000/svg" xmlns:xlink="http://www.w3.org/1999/xlink" x="0px" y="0px"
	 viewBox="0 0 500 469" style="enable-background:new 0 0 500 469;" xml:space="preserve">
<style type="text/css">
	.st0{fill:#0653C1;}
	.st1{fill:#FFFFFF;}
	.st2{fill:#32C0CA;}
	.st3{fill:#030169;}
	.st4{fill:#1FD5D9;}
</style>
<g id="Capa_1">
	<g>
		<path class="st1" d="M55.87,380.64h0.28c4.92-8.86,13.36-12.79,23.34-12.79h4.92v24.6c-3.52-1.97-6.89-2.39-10.83-2.39
			c-14.2,0-17.71,9.42-17.71,21.79v29.1H30.28v-72.12h25.59V380.64z"/>
		<path class="st1" d="M178.6,404.97c0,24.46-20.24,38.38-43.44,38.38c-23.06,0-43.44-13.78-43.44-38.38
			c0-24.6,20.24-38.52,43.44-38.52S178.6,380.36,178.6,404.97z M118.71,404.97c0,9.14,6.04,16.17,16.45,16.17
			s16.45-7.03,16.45-16.17c0-8.86-6.04-16.31-16.45-16.31S118.71,396.11,118.71,404.97z"/>
		<path class="st1" d="M221.33,378.11h0.28c5.9-8.72,13.07-11.67,23.06-11.67c19.4,0,27.13,12.23,27.13,29.94v44.57h-25.59v-35.15
			c0-6.89,1.12-18.98-11.53-18.98c-10.4,0-13.36,7.73-13.36,16.73v37.4h-25.59v-72.12h25.59V378.11z"/>
		<path class="st1" d="M348.55,432.94h-0.28c-4.5,7.17-13.36,10.4-21.79,10.4c-21.37,0-36.41-17.86-36.41-38.52
			c0-20.67,14.76-38.38,36.13-38.38c8.3,0,17.01,3.09,22.35,9.42v-51.59h25.59v116.69h-25.59V432.94z M316.5,404.97
			c0,9.14,6.04,16.17,16.45,16.17c10.4,0,16.45-7.03,16.45-16.17c0-8.86-6.05-16.31-16.45-16.31
			C322.54,388.66,316.5,396.11,316.5,404.97z"/>
		<path class="st1" d="M474.65,440.96h-25.59v-8.01h-0.28c-4.5,7.17-13.36,10.4-21.79,10.4c-21.37,0-36.41-17.86-36.41-38.52
			c0-20.67,14.76-38.38,36.13-38.38c8.3,0,17.01,3.09,22.35,9.42v-7.03h25.59V440.96z M417.01,404.97c0,9.14,6.04,16.17,16.45,16.17
			c10.4,0,16.45-7.03,16.45-16.17c0-8.86-6.05-16.31-16.45-16.31C423.06,388.66,417.01,396.11,417.01,404.97z"/>
	</g>
	<g>
		<path class="st1" d="M175.8,72.96c0.82,0.14,1.63,0.21,2.44,0.21c6.9,0,13.02-4.98,14.22-12.01c0.65-3.8-0.22-7.63-2.45-10.77
			c-2.23-3.15-5.55-5.24-9.35-5.89c-3.8-0.65-7.63,0.22-10.77,2.45c-3.15,2.23-5.24,5.55-5.89,9.35
			C162.66,64.14,167.95,71.62,175.8,72.96z"/>
		<path class="st1" d="M317.34,72.84c0.82,0.14,1.64,0.21,2.46,0.21c2.96,0,5.85-0.91,8.31-2.66c3.15-2.23,5.24-5.55,5.89-9.35
			c0.65-3.8-0.22-7.63-2.45-10.77c-2.23-3.15-5.55-5.24-9.35-5.89c-3.8-0.65-7.63,0.22-10.77,2.45s-5.24,5.55-5.89,9.35
			c-0.65,3.8,0.22,7.63,2.45,10.77C310.21,70.1,313.53,72.19,317.34,72.84z"/>
		<path class="st1" d="M363.84,178.19c-3.8-0.65-7.63,0.22-10.77,2.45c-3.15,2.23-5.24,5.55-5.89,9.35
			c-1.34,7.85,3.95,15.32,11.8,16.66c0.82,0.14,1.63,0.21,2.44,0.21c6.9,0,13.02-4.98,14.22-12.01c0.65-3.8-0.22-7.63-2.45-10.78
			C370.96,180.93,367.64,178.83,363.84,178.19z"/>
		<path class="st1" d="M150.24,194.85c1.34-7.85-3.95-15.32-11.8-16.66c-7.84-1.34-15.32,3.95-16.66,11.8
			c-1.34,7.85,3.95,15.32,11.8,16.66c0.82,0.14,1.63,0.21,2.44,0.21C142.92,206.86,149.04,201.88,150.24,194.85z"/>
		<path class="st1" d="M252.35,259.49c-3.8-0.65-7.63,0.22-10.77,2.45c-3.15,2.23-5.24,5.55-5.89,9.35s0.22,7.63,2.45,10.77
			c2.23,3.15,5.55,5.24,9.35,5.89c0.82,0.14,1.63,0.21,2.44,0.21c6.9,0,13.02-4.98,14.22-12.01
			C265.49,268.31,260.2,260.83,252.35,259.49z"/>
		<path class="st1" d="M249.65,157.6c13.26,0,24-10.74,24-24c0-13.26-10.74-24-24-24c-13.27,0-24,10.74-24,24
			C225.65,146.86,236.39,157.6,249.65,157.6z"/>
		<path class="st1" d="M215.23,181.81l0,6.95c9.16,8.37,21.48,13.42,34.74,13.42c13.42,0,25.58-5.05,34.9-13.42l0-6.95
			c0-7.11-5.84-12.95-12.95-12.95c-14.69,0-29.21,0-43.74,0C221.07,168.86,215.23,174.71,215.23,181.81z"/>
		<path class="st1" d="M218.4,53.04c1.07,0,2.15-0.14,3.23-0.42c8.79-2.33,17.89-3.52,27.05-3.52c1.97,0,3.95,0.06,5.9,0.16
			c7.05,0.39,14.05,1.47,20.81,3.22c6.71,1.73,13.56-2.3,15.29-9.01c1.74-6.71-2.3-13.56-9.01-15.29
			c-8.37-2.16-17.02-3.5-25.71-3.98c-2.4-0.13-4.85-0.2-7.29-0.2c-11.33,0-22.6,1.47-33.49,4.36c-6.7,1.78-10.69,8.65-8.91,15.35
			C207.77,49.33,212.85,53.04,218.4,53.04z"/>
		<path class="st1" d="M354.32,148.43c0.4,6.67,5.93,11.81,12.52,11.81c0.25,0,0.5-0.01,0.75-0.02c6.92-0.41,12.2-6.35,11.79-13.27
			c-1.33-22.44-8.51-44.3-20.75-63.2c-3.77-5.82-11.54-7.48-17.36-3.71c-5.82,3.77-7.48,11.54-3.71,17.36
			C347.45,112.67,353.24,130.31,354.32,148.43z"/>
		<path class="st1" d="M130.01,161.1c0.23,0.01,0.45,0.02,0.68,0.02c6.63,0,12.17-5.19,12.52-11.88l0.01-0.21
			c1-18.21,6.69-35.89,16.46-51.14c3.74-5.84,2.04-13.6-3.8-17.34c-5.84-3.74-13.6-2.04-17.34,3.8
			c-12.1,18.89-19.15,40.78-20.39,63.28l-0.02,0.28C117.78,154.83,123.09,160.73,130.01,161.1z"/>
		<path class="st1" d="M210.79,253.51c-16.91-6.51-31.98-17.38-43.59-31.45c-4.41-5.35-12.32-6.11-17.67-1.7
			c-5.35,4.41-6.11,12.32-1.7,17.67c14.35,17.4,33,30.85,53.94,38.9c1.48,0.57,3,0.84,4.5,0.84c5.04,0,9.8-3.06,11.72-8.05
			C220.49,263.26,217.26,256,210.79,253.51z"/>
		<path class="st1" d="M348.52,219.64c-5.38-4.37-13.28-3.56-17.66,1.82c-11.49,14.13-26.49,25.11-43.37,31.77
			c-6.45,2.54-9.61,9.83-7.07,16.28c1.95,4.94,6.68,7.95,11.68,7.95c1.53,0,3.09-0.28,4.6-0.88c20.88-8.23,39.43-21.82,53.64-39.28
			C354.71,231.92,353.9,224.01,348.52,219.64z"/>
	</g>
</g>
<g id="Capa_2">
</g>
</svg>
