<svg width="72px" height="10px" viewBox="0 0 72 10" version="1.1" xmlns="http://www.w3.org/2000/svg" xmlns:xlink="http://www.w3.org/1999/xlink">
    <g id="Symbols" stroke="none" stroke-width="1" fill="none" fill-rule="evenodd">
        <g id="Molecules-/-list-/-Rondas-Copy-2" transform="translate(-146.000000, -75.000000)" fill="#417fd7" fill-rule="nonzero">
            <g id="Group" transform="translate(58.000000, 69.000000)">
                <path id="Line" d="M89.1462808,6.5 L89.146,10.5 L91.1447141,10.5 L91.1447141,11.5 L89.146,11.5 L89.1462808,15.5 L88.1462808,15.5 L88.1462808,6.5 L89.1462808,6.5 Z M150.253719,6.5 L158.253,10.5 L158.340342,10.5 L158.34,10.544 L159.253719,11 L158.34,11.457 L158.340342,11.5 L158.253,11.5 L150.253719,15.5 L150.253,11.5 L148.14739,11.5 L148.14739,10.5 L150.253,10.5 L150.253719,6.5 Z M95.150868,10.5 L95.150868,11.5 L92.1473841,11.5 L92.1473841,10.5 L95.150868,10.5 Z M99.1476466,10.5 L99.1476466,11.5 L96.1487291,11.5 L96.1487291,10.5 L99.1476466,10.5 Z M103.151249,10.5 L103.151249,11.5 L100.149468,11.5 L100.149468,10.5 L103.151249,10.5 Z M107.144963,10.5 L107.144963,11.5 L104.143645,11.5 L104.143645,10.5 L107.144963,10.5 Z M111.141473,10.5 L111.141473,11.5 L108.143138,11.5 L108.143138,10.5 L111.141473,10.5 Z M115.150768,10.5 L115.150768,11.5 L112.149083,11.5 L112.149083,10.5 L115.150768,10.5 Z M119.145492,10.5 L119.145492,11.5 L116.146957,11.5 L116.146957,10.5 L119.145492,10.5 Z M123.148004,10.5 L123.148004,11.5 L120.148221,11.5 L120.148221,10.5 L123.148004,10.5 Z M127.144054,10.5 L127.144054,11.5 L124.145704,11.5 L124.145704,10.5 L127.144054,10.5 Z M131.146514,10.5 L131.146514,11.5 L128.145722,11.5 L128.145722,10.5 L131.146514,10.5 Z M135.147273,10.5 L135.147273,11.5 L132.146764,11.5 L132.146764,10.5 L135.147273,10.5 Z M139.145438,10.5 L139.145438,11.5 L136.144564,11.5 L136.144564,10.5 L139.145438,10.5 Z M143.14788,10.5 L143.14788,11.5 L140.147074,11.5 L140.147074,10.5 L143.14788,10.5 Z M147.147765,10.5 L147.147765,11.5 L144.147486,11.5 L144.147486,10.5 L147.147765,10.5 Z"></path>
            </g>
        </g>
    </g>
</svg>