
<svg width="28px" height="28px" viewBox="0 0 28 28" version="1.1" xmlns="http://www.w3.org/2000/svg" xmlns:xlink="http://www.w3.org/1999/xlink">
    <g id="Symbols" stroke="none" stroke-width="1" fill="none" fill-rule="evenodd">
        <g id="icon/fecha" transform="translate(0.000000, -14.000000)" fill="#417FD7">
            <g id="Group">
                <path d="M3,39 L25,39 L25,22 L3,22 L3,39 Z M24.8645394,14.7443793 C25.6905479,14.7443793 26.4192436,15.0524241 27.0521592,15.6670218 C27.682776,16.2831113 28,16.9924347 28,17.7964838 L28,39.0187533 C28,39.8242941 27.682776,40.5216835 27.0521592,41.1131593 C26.4192436,41.7046351 25.6905479,42 24.8645394,42 L3.13546057,42 C2.26041268,42 1.51869082,41.7046351 0.911061245,41.1131593 C0.303431668,40.5216835 0,39.8242941 0,39.0187533 L0,17.7964838 C0,16.9924347 0.303431668,16.2831113 0.911061245,15.6670218 C1.51869082,15.0524241 2.26041268,14.7443793 3.13546057,14.7443793 L4.66641125,14.7443793 L4.66641125,14 L7.80187182,14 L7.80187182,14.7443793 L20.1973619,14.7443793 L20.1973619,14 L23.3335887,14 L23.3335887,14.7443793 L24.8645394,14.7443793 Z" id="Fill-1"></path>
            </g>
        </g>
    </g>
</svg>