
<svg width="74px" height="77px" viewBox="0 0 74 77" version="1.1" xmlns="http://www.w3.org/2000/svg" xmlns:xlink="http://www.w3.org/1999/xlink">
    <g id="Page-1" stroke="none" stroke-width="1" fill="none" fill-rule="evenodd">
        <g id="Ronda-detalle-de-ROnda-creada--Copy-2" transform="translate(-143.000000, -293.000000)" fill="#939597">
            <g id="Calendar-Dialogue" transform="translate(24.000000, 87.000000)">
                <g id="Group-15" transform="translate(55.000000, 143.000000)">
                    <g id="Group-14">
                        <g id="Group-8">
                            <g id="Group-10" transform="translate(64.103885, 63.419689)">
                                <path d="M27.2982833,73.7697824 C11.2253863,69.4902218 8.3795928e-05,54.7726259 8.3795928e-05,37.977401 C8.3795928e-05,20.5834943 12.2217199,5.35262176 29.0605116,1.76222176 L29.4074268,3.41705285 C13.3387196,6.84340725 1.67600236,21.3775088 1.67600236,37.977401 C1.67600236,54.0048249 12.3876358,68.0510176 27.7256425,72.1344 L27.2982833,73.7697824 Z" id="Fill-1"></path>
                                <polygon id="Fill-3" points="26.5332264 6.10351088 28.7554945 2.72366425 25.4044953 0.483680829 27.7700543 0 31.1185396 2.24082902 28.8971096 5.61983005"></polygon>
                                <path d="M41.6304036,74.6574889 L41.4058305,72.9815179 C58.6677917,70.631607 71.6846512,55.5833832 71.6846512,37.9772319 C71.6846512,21.269949 59.9305963,6.71555316 43.7361953,3.37122155 L44.071379,1.71469927 C61.0425683,5.2188485 73.3605697,20.4700153 73.3605697,37.9772319 C73.3605697,56.4255967 59.7194306,72.1951138 41.6304036,74.6574889" id="Fill-5"></path>
                                <polygon id="Fill-7" points="44.4592703 70.5038375 42.0040497 73.7154106 45.1882949 76.1904696 42.7959212 76.5033401 39.6133518 74.0274354 42.0668966 70.8158624"></polygon>
                            </g>
                        </g>
                    </g>
                </g>
            </g>
        </g>
    </g>
</svg>