<svg width="41" height="26" viewBox="0 0 41 26" fill="none" xmlns="http://www.w3.org/2000/svg">
<path d="M18.2681 18.3544C18.2681 19.2895 17.4768 20.0478 16.5006 20.0478C16.4997 20.0478 16.4983 20.0478 16.497 20.0478H7.54158C6.56554 20.0478 5.77404 19.2895 5.77404 18.3544C5.77404 16.3824 7.44843 14.7783 9.50638 14.7783H9.87633C8.97223 14.1437 8.38152 13.122 8.38152 11.9683C8.38152 10.0466 10.0133 8.48321 12.0191 8.48321C14.0249 8.48321 15.6567 10.0466 15.6567 11.9683C15.6567 13.122 15.0662 14.1437 14.1619 14.7783H14.5317C16.5378 14.7783 18.1794 16.3026 18.2612 18.2057C18.2658 18.2546 18.2681 18.3042 18.2681 18.3544ZM40.3 1.27007V24.7299C40.3 25.4315 39.7066 26 38.9743 26H1.32566C0.593364 26 0 25.4315 0 24.7299V1.27007C0 0.568483 0.593364 0 1.32566 0H38.9743C39.7066 0 40.3 0.568652 40.3 1.27007ZM20.2631 5.6115C20.2631 4.90992 19.6698 4.34143 18.9375 4.34143H5.10113C4.36884 4.34143 3.77547 4.90992 3.77547 5.6115V20.3887C3.77547 21.0903 4.36884 21.6587 5.10113 21.6587H18.9373C19.6696 21.6587 20.2629 21.0903 20.2629 20.3887V5.6115H20.2631ZM36.1889 18.419C36.1889 17.7175 35.5955 17.149 34.8632 17.149H25.3938C24.6615 17.149 24.0681 17.7175 24.0681 18.419C24.0681 19.1206 24.6615 19.6891 25.3938 19.6891H34.8632C35.5955 19.6891 36.1889 19.1206 36.1889 18.419ZM36.1889 13.0001C36.1889 12.2985 35.5955 11.73 34.8632 11.73H25.3938C24.6615 11.73 24.0681 12.2985 24.0681 13.0001C24.0681 13.7017 24.6615 14.2702 25.3938 14.2702H34.8632C35.5955 14.2702 36.1889 13.7017 36.1889 13.0001ZM36.1889 7.58112C36.1889 6.87954 35.5955 6.31106 34.8632 6.31106H25.3938C24.6615 6.31106 24.0681 6.87954 24.0681 7.58112C24.0681 8.28271 24.6615 8.85119 25.3938 8.85119H34.8632C35.5955 8.85119 36.1889 8.28271 36.1889 7.58112Z" fill="#04C9E1"/>
</svg>
