<svg width="18" height="18" viewBox="0 0 18 18" fill="none" xmlns="http://www.w3.org/2000/svg">
<path d="M6.74993 9.00089C6.74993 7.76041 7.75944 6.75091 8.99991 6.75091H11.9999V0.750958C11.9999 0.336962 11.6646 0.000976562 11.2499 0.000976562H0.749981C0.335247 0.000976562 0 0.336962 0 0.750958V17.2508C0 17.6648 0.335247 18.0008 0.749981 18.0008H11.2499C11.6646 18.0008 11.9999 17.6648 11.9999 17.2508V12.0009V11.2509H8.99991C7.75944 11.2509 6.74993 10.2414 6.74993 9.00089Z" fill="#939393"/>
<path d="M17.8312 9.47376C17.8335 9.47099 17.8354 9.468 17.8376 9.46518C17.8504 9.44894 17.8629 9.43238 17.8744 9.41509C17.8798 9.407 17.8844 9.39856 17.8895 9.3903C17.8971 9.37789 17.9048 9.36559 17.9117 9.35272C17.9173 9.34217 17.9221 9.33128 17.9272 9.32052C17.9325 9.30937 17.9381 9.2984 17.9428 9.28698C17.9479 9.27467 17.952 9.26212 17.9564 9.24964C17.9601 9.23927 17.9641 9.22908 17.9673 9.2185C17.9718 9.2038 17.9752 9.18893 17.9788 9.17406C17.9808 9.16534 17.9834 9.1568 17.9852 9.14797C17.9893 9.12755 17.9922 9.10698 17.9945 9.08634C17.995 9.08279 17.9957 9.07935 17.9961 9.07576C18.0012 9.02535 18.0012 8.97451 17.9961 8.9241C17.9957 8.92051 17.9949 8.91707 17.9945 8.91352C17.9922 8.89288 17.9892 8.87232 17.9852 8.85189C17.9834 8.84307 17.9809 8.83452 17.9788 8.8258C17.9752 8.81093 17.9718 8.79603 17.9673 8.78137C17.9641 8.77079 17.9601 8.76059 17.9564 8.75022C17.952 8.73774 17.9479 8.72515 17.9428 8.71288C17.9381 8.70146 17.9325 8.69049 17.9272 8.67934C17.9221 8.66859 17.9173 8.65772 17.9117 8.64714C17.9048 8.63427 17.8971 8.62197 17.8895 8.60956C17.8844 8.6013 17.8798 8.59286 17.8744 8.58478C17.8629 8.56748 17.8504 8.55092 17.8376 8.53468C17.8354 8.53187 17.8335 8.52891 17.8312 8.5261C17.8143 8.50539 17.7963 8.48564 17.7774 8.46686L14.7802 5.46968C14.4869 5.17645 14.0129 5.17645 13.7197 5.46968C13.4265 5.76292 13.4265 6.23692 13.7197 6.53016L15.4394 8.24988H8.99998C8.58525 8.24988 8.25 8.58587 8.25 8.99986C8.25 9.41386 8.58525 9.74984 8.99998 9.74984H15.4394L13.7197 11.4696C13.4265 11.7628 13.4265 12.2368 13.7197 12.53C13.8659 12.6763 14.0579 12.7498 14.25 12.7498C14.4419 12.7498 14.634 12.6763 14.7802 12.53L17.7774 9.53286C17.7963 9.51423 17.8143 9.49447 17.8312 9.47376Z" fill="#939393"/>
</svg>
