<svg width="45" height="45" viewBox="0 0 45 45" fill="none" xmlns="http://www.w3.org/2000/svg">
<path d="M11.0307 8.3222C12.3723 8.3222 13.4598 7.24427 13.4598 5.91457C13.4598 4.58488 12.3723 3.50695 11.0307 3.50695C9.68912 3.50695 8.60156 4.58488 8.60156 5.91457C8.60156 7.24427 9.68912 8.3222 11.0307 8.3222Z" fill="white"/>
<path d="M11.0354 8.38501C10.8944 8.38501 10.7523 8.37337 10.6102 8.34892C9.95356 8.23832 9.38034 7.87973 8.99506 7.34186C8.60978 6.80282 8.4606 6.14853 8.57219 5.49772C8.68378 4.84692 9.04557 4.27878 9.58825 3.89691C10.1321 3.51504 10.7922 3.36602 11.4489 3.47779C12.1055 3.58839 12.6787 3.94697 13.064 4.48484C13.4493 5.02388 13.5996 5.67818 13.4868 6.32898C13.3753 6.97978 13.0135 7.54793 12.4708 7.9298C12.0456 8.229 11.5475 8.38501 11.0354 8.38501ZM11.026 3.5686C10.5409 3.5686 10.0675 3.71645 9.66342 4.00052C9.14776 4.3626 8.80477 4.90164 8.69905 5.51868C8.59216 6.13572 8.73547 6.75742 9.10078 7.26851C9.46609 7.77961 10.0099 8.11956 10.6325 8.22435C11.255 8.33029 11.8823 8.18825 12.398 7.82618C12.9136 7.4641 13.2566 6.92507 13.3623 6.30803C13.4692 5.69098 13.3259 5.06929 12.9606 4.55819C12.5953 4.04709 12.0514 3.70714 11.4289 3.60236C11.2938 3.58024 11.1599 3.5686 11.026 3.5686Z" fill="white"/>
<path d="M35.3503 8.57391C36.6918 8.57391 37.7794 7.49598 37.7794 6.16628C37.7794 4.83659 36.6918 3.75866 35.3503 3.75866C34.0087 3.75866 32.9211 4.83659 32.9211 6.16628C32.9211 7.49598 34.0087 8.57391 35.3503 8.57391Z" fill="white"/>
<path d="M35.3515 8.63788C35.2129 8.63788 35.0719 8.62624 34.931 8.60295C34.2743 8.49235 33.7011 8.13377 33.3158 7.5959C32.9306 7.05686 32.7802 6.40256 32.893 5.75176C33.0046 5.10095 33.3663 4.53281 33.909 4.15094C34.4529 3.76908 35.113 3.62006 35.7696 3.73182C36.4263 3.84242 36.9995 4.20101 37.3848 4.73888C37.77 5.27792 37.9204 5.93221 37.8076 6.58302C37.6009 7.78567 36.5437 8.63788 35.3515 8.63788ZM35.3456 3.82147C34.8605 3.82147 34.3871 3.96932 33.983 4.2534C33.4674 4.61547 33.1244 5.15451 33.0187 5.77155C32.9118 6.38859 33.0551 7.01029 33.4204 7.52138C33.7857 8.03248 34.3295 8.37244 34.9521 8.47722C36.2383 8.69493 37.4623 7.83456 37.6819 6.5609C37.7888 5.94386 37.6455 5.32216 37.2802 4.81106C36.9149 4.29997 36.3711 3.96001 35.7485 3.85523C35.6146 3.83311 35.4795 3.82147 35.3456 3.82147Z" fill="white"/>
<path d="M42.506 31.0899C43.8476 31.0899 44.9352 30.0119 44.9352 28.6822C44.9352 27.3525 43.8476 26.2746 42.506 26.2746C41.1645 26.2746 40.0769 27.3525 40.0769 28.6822C40.0769 30.0119 41.1645 31.0899 42.506 31.0899Z" fill="white"/>
<path d="M42.5119 31.1538C42.371 31.1538 42.2288 31.1422 42.0867 31.1177C41.4301 31.0071 40.8569 30.6485 40.4716 30.1107C40.0863 29.5716 39.936 28.9173 40.0487 28.2665C40.2801 26.923 41.5711 26.0184 42.9254 26.2466C43.582 26.3572 44.1552 26.7158 44.5405 27.2537C44.9258 27.7927 45.0761 28.447 44.9634 29.0978C44.8518 29.7486 44.49 30.3167 43.9473 30.6986C43.5209 30.9978 43.0229 31.1538 42.5119 31.1538ZM40.111 28.277L40.1732 28.2875C40.0664 28.9045 40.2097 29.5262 40.575 30.0373C40.9403 30.5484 41.4841 30.8884 42.1067 30.9932C42.7292 31.0991 43.3565 30.9571 43.8721 30.595C44.3878 30.2329 44.7308 29.6939 44.8365 29.0768C44.9434 28.4598 44.8001 27.8381 44.4348 27.327C44.0695 26.8159 43.5256 26.476 42.9031 26.3712C41.6169 26.1523 40.3929 27.0127 40.1732 28.2875L40.111 28.277Z" fill="white"/>
<path d="M3.77752 31.0899C5.1191 31.0899 6.20666 30.0119 6.20666 28.6822C6.20666 27.3525 5.1191 26.2746 3.77752 26.2746C2.43595 26.2746 1.34839 27.3525 1.34839 28.6822C1.34839 30.0119 2.43595 31.0899 3.77752 31.0899Z" fill="white"/>
<path d="M3.7822 31.1538C3.64124 31.1538 3.49911 31.1422 3.35698 31.1177C2.70036 31.0071 2.12714 30.6485 1.74187 30.1107C1.35659 29.5728 1.20623 28.9173 1.319 28.2665C1.43059 27.6157 1.79237 27.0476 2.33505 26.6657C2.87891 26.2839 3.53905 26.1348 4.19567 26.2466C4.85228 26.3572 5.4255 26.7158 5.81078 27.2537C6.19606 27.7915 6.34641 28.447 6.23365 29.0978C6.12206 29.7486 5.76027 30.3167 5.21759 30.6986C4.79238 30.9978 4.29434 31.1538 3.7822 31.1538ZM1.38243 28.277L1.44468 28.2875C1.33779 28.9045 1.4811 29.5262 1.84641 30.0373C2.21172 30.5484 2.75557 30.8884 3.37812 30.9932C4.00068 31.0991 4.62793 30.9571 5.14359 30.595C5.65926 30.2329 6.00225 29.6939 6.10796 29.0768C6.21485 28.4598 6.07155 27.8381 5.70624 27.327C5.34093 26.8159 4.79708 26.476 4.17452 26.3712C3.55197 26.2652 2.92472 26.4073 2.40905 26.7693C1.89339 27.1314 1.5504 27.6705 1.44468 28.2875L1.38243 28.277Z" fill="white"/>
<path d="M23.3492 44.9372C24.6908 44.9372 25.7783 43.8592 25.7783 42.5296C25.7783 41.1999 24.6908 40.1219 23.3492 40.1219C22.0076 40.1219 20.92 41.1999 20.92 42.5296C20.92 43.8592 22.0076 44.9372 23.3492 44.9372Z" fill="white"/>
<path d="M23.3551 45C23.2141 45 23.072 44.9884 22.9299 44.9639C22.2732 44.8533 21.7 44.4947 21.3147 43.9569C20.9295 43.4178 20.7791 42.7635 20.8919 42.1127C21.0035 41.4619 21.3653 40.8938 21.9079 40.5119C22.4518 40.13 23.1119 39.981 23.7685 40.0928C24.4252 40.2034 24.9984 40.562 25.3837 41.0998C25.7689 41.6389 25.9193 42.2932 25.8065 42.944C25.6949 43.5948 25.3331 44.1629 24.7905 44.5448C24.3641 44.844 23.866 45 23.3551 45ZM23.3445 40.1836C22.8594 40.1836 22.386 40.3314 21.9819 40.6155C21.4663 40.9776 21.1233 41.5166 21.0176 42.1337C20.9107 42.7507 21.054 43.3724 21.4193 43.8835C21.7846 44.3946 22.3284 44.7346 22.951 44.8393C23.5735 44.9453 24.2008 44.8032 24.7165 44.4412C25.2321 44.0791 25.5751 43.5401 25.6808 42.923C25.7877 42.306 25.6444 41.6843 25.2791 41.1732C24.9138 40.6621 24.3699 40.3221 23.7474 40.2174C23.6135 40.1952 23.4784 40.1836 23.3445 40.1836Z" fill="white"/>
<path d="M23.2165 22.9798C25.3904 22.8891 27.0786 21.0689 26.9873 18.9143C26.896 16.7596 25.0597 15.0865 22.8859 15.1771C20.712 15.2678 19.0237 17.088 19.115 19.2426C19.2063 21.3972 21.0426 23.0704 23.2165 22.9798Z" fill="white"/>
<path d="M26.7061 24.5829C24.2958 24.5829 21.9113 24.5829 19.5268 24.5829C18.3604 24.5829 17.4019 25.5329 17.4019 26.689V27.8195C18.9054 29.1805 20.9269 30.0024 23.1035 30.0024C25.3059 30.0024 27.3016 29.1805 28.831 27.8195V26.689C28.8322 25.5341 27.8725 24.5829 26.7061 24.5829Z" fill="white"/>
<path d="M15.1467 43.2199C14.8894 43.2199 14.6275 43.1733 14.3726 43.0767C10.7747 41.7052 7.57031 39.414 5.10477 36.4522C4.34713 35.5418 4.47751 34.1948 5.39607 33.4427C6.31463 32.6918 7.67368 32.821 8.43249 33.7314C10.4258 36.1274 13.0159 37.9785 15.9219 39.0869C17.0331 39.5107 17.5887 40.7471 17.16 41.8496C16.8299 42.6995 16.0136 43.2199 15.1467 43.2199ZM29.893 43.1652C29.0331 43.1652 28.2203 42.6517 27.8855 41.8112C27.4486 40.7133 27.9924 39.4722 29.1013 39.0391C32.0014 37.9052 34.5786 36.0354 36.5531 33.629C37.3049 32.7127 38.6628 32.5753 39.5872 33.3193C40.5116 34.0644 40.6514 35.4102 39.8996 36.3265C37.4588 39.3011 34.272 41.6144 30.6835 43.0161C30.4239 43.1163 30.1561 43.1652 29.893 43.1652ZM2.15762 23.3523C2.11768 23.3523 2.07657 23.3512 2.03663 23.3488C0.84791 23.2836 -0.0624275 22.2743 0.00335177 21.0961L0.00570063 21.0576C0.218309 17.2215 1.42935 13.4936 3.50845 10.2757C4.15097 9.28147 5.48417 8.99157 6.48731 9.62841C7.49044 10.2652 7.78292 11.5866 7.1404 12.5809C5.46185 15.1783 4.48339 18.1901 4.31189 21.2905L4.30954 21.3312C4.24494 22.4722 3.29349 23.3523 2.15762 23.3523ZM42.7328 23.2021C41.6005 23.2021 40.6502 22.3266 40.5821 21.1915C40.3977 18.1063 39.4016 15.1003 37.7019 12.5006C37.0535 11.5098 37.3389 10.1861 38.3386 9.54458C39.3382 8.90309 40.6737 9.18483 41.3209 10.1756C43.4259 13.3947 44.6592 17.1156 44.8871 20.9377C44.9576 22.1159 44.0508 23.1276 42.8621 23.1975C42.8198 23.201 42.7763 23.2021 42.7328 23.2021ZM17.2281 4.94588C16.2743 4.94588 15.4016 4.3137 15.1455 3.35671C14.8401 2.21576 15.5249 1.04571 16.676 0.741851C18.9454 0.144602 21.3158 -0.0952286 23.6815 0.0340008C25.1757 0.115497 26.6627 0.343685 28.1005 0.711582C29.254 1.0073 29.947 2.17385 29.6486 3.31596C29.3503 4.45923 28.1745 5.14613 27.021 4.85041C25.8593 4.55237 24.6553 4.36842 23.4454 4.30206C21.5296 4.19728 19.6161 4.39171 17.7837 4.8737C17.597 4.9226 17.4114 4.94588 17.2281 4.94588Z" fill="white"/>
</svg>
