<svg width="45" height="44" viewBox="0 0 45 44" fill="none" xmlns="http://www.w3.org/2000/svg">
<ellipse cx="22.5" cy="21.6834" rx="22.5" ry="21.6834" fill="#7DE370"/>
<path d="M13.9189 31.2759L15.7469 29.448C17.2092 30.5854 18.9154 31.2759 20.8652 31.5197V34.1398C19.7684 34.0179 18.5295 33.6726 17.1483 33.1039C15.8078 32.5352 14.7313 31.9259 13.9189 31.2759ZM23.4244 31.5197C25.3336 31.2759 27.0194 30.5854 28.4818 29.448L30.3707 31.2759C28.299 32.9414 25.9836 33.896 23.4244 34.1398V31.5197ZM30.3707 27.62C31.5487 26.1576 32.2393 24.4718 32.4424 22.5626H35.0625C34.9407 23.6187 34.5954 24.8374 34.0267 26.2185C33.458 27.559 32.8486 28.6355 32.1987 29.448L30.3707 27.62ZM24.8868 18.4801C25.6586 19.2519 26.0445 20.1659 26.0445 21.222C26.0445 22.2782 25.6586 23.1922 24.8868 23.964C24.115 24.7358 23.201 25.1217 22.1448 25.1217C21.0886 25.1217 20.1746 24.7358 19.4028 23.964C18.631 23.1922 18.2451 22.2782 18.2451 21.222C18.2451 20.1659 18.631 19.2519 19.4028 18.4801C20.1746 17.7082 21.0886 17.3223 22.1448 17.3223C23.201 17.3223 24.115 17.7082 24.8868 18.4801ZM11.8472 22.5016C12.0503 24.4108 12.7408 26.0967 13.9189 27.559L12.0909 29.448C10.4254 27.3762 9.47078 25.0608 9.22705 22.5016H11.8472ZM13.9189 14.8241C12.7815 16.3271 12.0909 18.0332 11.8472 19.9424H9.22705C9.34892 18.8457 9.6942 17.627 10.2629 16.2865C10.8316 14.9053 11.4409 13.8085 12.0909 12.9961L13.9189 14.8241ZM32.4424 19.9424C32.1987 17.9926 31.5081 16.2865 30.3707 14.8241L32.1987 12.9961C33.8642 15.0678 34.8188 17.3833 35.0625 19.9424H32.4424ZM30.3707 11.1681L28.5427 12.9961C27.0397 11.8587 25.3336 11.1681 23.4244 10.9244V8.30429C24.5212 8.42616 25.7398 8.77144 27.0803 9.34015C28.4615 9.90885 29.5583 10.5182 30.3707 11.1681ZM20.8652 10.9244C18.9154 11.1681 17.2092 11.8587 15.7469 12.9961L13.9189 11.1681C15.9906 9.50263 18.306 8.54802 20.8652 8.30429V10.9244Z" fill="white"/>
<path d="M35.1085 26.8251C38.0702 26.8251 40.4258 24.3447 40.4258 21.3418C40.4258 18.3389 38.0702 15.8585 35.1085 15.8585C32.1468 15.8585 29.7911 18.3389 29.7911 21.3418C29.7911 24.3447 32.1468 26.8251 35.1085 26.8251Z" fill="white" stroke="#7DE370" stroke-width="1.5"/>
<path fill-rule="evenodd" clip-rule="evenodd" d="M37.5023 18.9034C37.8666 19.1806 37.9385 19.7025 37.663 20.069L34.7516 23.9409C34.5794 24.17 34.3018 24.2935 34.0175 24.2676C33.7331 24.2417 33.4821 24.0701 33.3535 23.8136L32.3831 21.8777C32.1774 21.4673 32.3413 20.9669 32.7491 20.76C33.157 20.553 33.6544 20.7179 33.8601 21.1282L34.233 21.8722L36.3438 19.065C36.6193 18.6985 37.1381 18.6261 37.5023 18.9034Z" fill="#7DE370"/>
</svg>