<svg width="45" height="45" viewBox="0 0 45 45" fill="none" xmlns="http://www.w3.org/2000/svg">
<circle cx="22.5" cy="22.5" r="22.5" fill="#3EE3F8"/>
<path d="M14.443 32.4538L16.3398 30.557C17.8573 31.7373 19.6277 32.4538 21.6509 32.7067V35.4255C20.5128 35.2991 19.2272 34.9408 17.7941 34.3507C16.403 33.7605 15.286 33.1283 14.443 32.4538ZM24.3065 32.7067C26.2876 32.4538 28.0369 31.7373 29.5544 30.557L31.5144 32.4538C29.3647 34.1821 26.9621 35.1726 24.3065 35.4255V32.7067ZM31.5144 28.6602C32.7368 27.1427 33.4534 25.3934 33.6642 23.4123H36.383C36.2565 24.5082 35.8982 25.7728 35.3081 27.2059C34.718 28.597 34.0857 29.714 33.4113 30.557L31.5144 28.6602ZM25.824 19.176C26.6248 19.9769 27.0253 20.9253 27.0253 22.0213C27.0253 23.1172 26.6248 24.0656 25.824 24.8665C25.0231 25.6674 24.0747 26.0678 22.9787 26.0678C21.8828 26.0678 20.9344 25.6674 20.1335 24.8665C19.3326 24.0656 18.9322 23.1172 18.9322 22.0213C18.9322 20.9253 19.3326 19.9769 20.1335 19.176C20.9344 18.3752 21.8828 17.9747 22.9787 17.9747C24.0747 17.9747 25.0231 18.3752 25.824 19.176ZM12.2933 23.3491C12.504 25.3302 13.2206 27.0795 14.443 28.597L12.5462 30.557C10.8179 28.4073 9.82737 26.0046 9.57446 23.3491H12.2933ZM14.443 15.3824C13.2627 16.942 12.5462 18.7124 12.2933 20.6935H9.57446C9.70092 19.5554 10.0592 18.2908 10.6493 16.8998C11.2395 15.4667 11.8717 14.3286 12.5462 13.4855L14.443 15.3824ZM33.6642 20.6935C33.4113 18.6702 32.6947 16.8998 31.5144 15.3824L33.4113 13.4855C35.1395 15.6353 36.1301 18.0379 36.383 20.6935H33.6642ZM31.5144 11.5887L29.6176 13.4855C28.058 12.3053 26.2876 11.5887 24.3065 11.3358V8.61702C25.4446 8.74348 26.7091 9.10177 28.1002 9.69189C29.5333 10.282 30.6714 10.9143 31.5144 11.5887ZM21.6509 11.3358C19.6277 11.5887 17.8573 12.3053 16.3398 13.4855L14.443 11.5887C16.5927 9.8605 18.9954 8.86993 21.6509 8.61702V11.3358Z" fill="white"/>
</svg>