
<svg width="260px" height="220px" viewBox="0 0 260 220" version="1.1" xmlns="http://www.w3.org/2000/svg" xmlns:xlink="http://www.w3.org/1999/xlink">
    <defs>
        <linearGradient x1="64.6185852%" y1="10.8359761%" x2="4.86576452%" y2="113.861449%" id="linearGradient-1">
            <stop stop-color="#FF3232" offset="0%"></stop>
            <stop stop-color="#9C13CA" offset="100%"></stop>
        </linearGradient>
    </defs>
    <g id="Page-1" stroke="none" stroke-width="1" fill="none" fill-rule="evenodd">
        <g id="Onboarding_ronda3" transform="translate(-53.000000, -132.000000)">
            <g id="Group-7" transform="translate(20.000000, 96.000000)">
                <path d="M155.395876,199.090054 C113.080934,248.624972 58.0488161,204.765309 53.1556792,155.070975 C51.0304842,133.487654 59.5742772,108.592088 78.7870581,80.3842791 L78.7870584,80.3842794 C101.247973,47.4076272 141.162295,30.9385615 180.342066,38.4816231 C213.850587,44.9328306 236.836351,56.1635347 249.299356,72.1737355 C249.299356,72.1737355 249.299356,72.1737355 249.299356,72.1737355 C270.334022,99.1952449 265.480727,138.152472 238.459217,159.187138 C227.83984,167.453702 214.819207,172.040808 201.363316,172.255842 C185.787745,172.504699 170.465266,181.449453 155.395876,199.090054 Z" id="Rectangle-Copy-2" fill-opacity="0.1" fill="url(#linearGradient-1)"></path>
                <g id="Group-8" transform="translate(33.000000, 90.000000)">
                    <g id="Group-3" transform="translate(163.000000, 72.000000)">
                        <path d="M97,34.1401876 C97,29.0385639 93.0464921,24.8418641 87.9779581,24.3323726 C86.6335943,17.9899381 80.8997243,13.223782 74.0294347,13.223782 C72.9255332,13.223782 71.8528661,13.3508404 70.8208465,13.5835711 C69.6086941,9.83807518 67.237873,6.41378954 63.7815487,3.88142841 C54.984138,-2.56416239 42.5207472,-0.800022095 35.9439757,7.82191484 C34.9419069,9.13527054 34.1370856,10.5329125 33.5192431,11.9800359 C31.3910236,8.945312 27.8260206,6.95431173 23.7847996,6.95431173 C17.2649346,6.95431173 11.979899,12.134351 11.979899,18.5241703 C11.979899,19.6282781 12.1407777,20.6950651 12.4360071,21.7069193 C12.09414,21.6763078 11.748422,21.6586958 11.3984253,21.6586958 C5.10319137,21.6586958 0,26.6600985 0,32.8293479 C0,38.9985973 5.10319137,44 11.3984253,44 C11.5255023,44 11.6517236,43.9945487 11.7779449,43.9907746 L87.3438566,44 C92.7123266,43.7819461 97,39.4527365 97,34.1401876 Z" id="Stroke-4" fill="#EEEEEE"></path>
                        <path d="M40.0576865,3.80727804 C46.9316999,-1.17013159 56.5836672,-1.39223679 63.7815487,3.88142841 C67.237873,6.41378954 69.6086941,9.83807518 70.8208465,13.5835711 C71.8528661,13.3508404 72.9255332,13.223782 74.0294347,13.223782 C80.8997243,13.223782 86.6335943,17.9899381 87.9779581,24.3323726 C93.0464921,24.8418641 97,29.0385639 97,34.1401876 C97,35.1346027 96.8497719,36.0945644 96.5703474,36.9994933 L88.5,37 C61.7141896,37 40,22.4492544 40,4.5 C40,4.28024745 40.0032548,4.0610043 40.0097337,3.84229102 Z" id="Combined-Shape" fill="#F5F5F5"></path>
                        <path d="M23.7847996,6.95431173 C27.8260206,6.95431173 31.3910236,8.945312 33.5192431,11.9800359 C33.5092876,11.9810025 33.5047283,11.9905435 33.5,12 C32,15 31,19 31,20 C27,19.5 21.5,17.5 20.5,7.5 L20.4923644,7.41027318 C21.5373776,7.11342332 22.6421239,6.95431173 23.7847996,6.95431173 Z" id="Combined-Shape" fill="#F5F5F5"></path>
                    </g>
                    <path d="M250.999571,14.7592736 C251.035646,14.3546477 251.05669,13.9456709 251.05669,13.5319083 C251.05669,6.05851146 245.076303,0 237.699704,0 C232.088232,0 227.288462,3.5067578 225.310746,8.47364949 C223.947175,6.44747442 221.651651,5.1156896 219.048196,5.1156896 C214.864717,5.1156896 211.473611,8.55109402 211.473611,12.789224 C211.473611,13.6454646 211.617914,14.4660285 211.87302,15.2348178 C211.489931,15.1743414 211.100401,15.1334437 210.700563,15.1334437 C207.271235,15.1334437 204.377458,17.4437271 203.444646,20.6106862 C203.043949,20.5106174 202.627362,20.4514463 202.196173,20.4514463 C199.326446,20.4514463 197,22.8082834 197,25.7154987 C197,28.5752902 199.252577,30.8973207 202.057454,30.9725899 L202.057454,30.9795512 L249.742079,30.9795512 C249.955955,30.9917334 250.17155,31 250.389292,31 C255.697127,31 260,27.3601072 260,22.8705001 C260,18.5544905 256.022667,15.0259786 250.999571,14.7592736 Z" id="Stroke-2" fill="#F5F5F5"></path>
                    <path d="M81.736326,69.3845514 C81.137848,69.3845514 80.5609864,69.4741831 80.0129467,69.6321057 C79.6009633,65.6038009 76.2207494,62.4615696 72.1115114,62.4615696 C71.5168481,62.4615696 70.9391388,62.5324213 70.3817744,62.657052 C70.5135921,61.997192 70.5835276,61.3142838 70.5835276,60.6155833 C70.5835276,54.9226898 66.0008477,50.3075109 60.3475195,50.3075109 C57.2661208,50.3075109 54.5043059,51.6805832 52.6279164,53.8500972 C51.8259898,52.0519145 50.6951546,50.3659849 49.2286292,48.8887691 C42.754725,42.3704103 32.2593199,42.3704103 25.7858395,48.8887691 C22.0169541,52.6844582 20.4465851,57.852366 21.0662557,62.7949141 C20.4787978,62.6779661 19.8718428,62.6152239 19.250053,62.6152239 C15.4871014,62.6152239 12.2471824,64.8628455 10.7759946,68.095989 C9.74900299,67.5453943 8.57790194,67.2308297 7.33347462,67.2308297 C3.28357576,67.2308297 0,70.536959 0,74.6152014 C0,78.6793589 3.26111165,81.9748178 7.29151334,81.9978659 L7.29151334,82 L7.33347462,82 L81.736326,82 L82.13517,82 L82.13517,81.9799396 C85.4081495,81.7712258 88,79.0404466 88,75.6924891 C88,72.2088037 85.1958,69.3845514 81.736326,69.3845514 Z" id="Stroke-6" fill="#F5F5F5"></path>
                </g>
                <g id="Group" transform="translate(72.000000, 101.000000)">
                    <path d="M94.5716208,65.4916354 L79.7969552,72.6109029 L50.6303306,56 L49,61.9801414 L75.5751535,82.9571533 C75.5751535,82.9571533 76.726554,84 79.0293549,84 C81.3321558,84 101,75.5533748 101,75.5533748 L94.5716208,65.4916354 Z" id="Fill-19" fill="#FCCEBE"></path>
                    <polygon id="Fill-21" fill="#FCCEBE" points="126 143.949528 130.451195 142 146 155 127.910693 153.144957"></polygon>
                    <path d="M103.382456,97.0980204 L81.71888,89.3639664 C81.71888,89.3639664 61,85.4044007 61,103.605121 C61,121.804752 61.2948763,135.834701 61.2948763,135.834701 L72.7655629,135.673574 L75.1169281,112.276537 C75.1169281,112.276537 75.0273731,109.583118 77.9357267,109.583118 C80.8429883,109.583118 98.453654,120.051961 98.453654,120.051961 L71.4724759,137.445962 C71.4724759,137.445962 67.1104915,138.732793 67.1104915,144.531157 C67.1104915,150.32952 70.8259324,154.838874 70.8259324,154.838874 L127.533914,153.066486 L127.373371,143.725526 L131.735355,143.565489 L146.274939,155 L155,154.838874 L133.997165,139.055046 L130.76554,136.31699 C130.76554,136.31699 136.904427,132.453229 139.005693,129.554048 C141.105867,126.653778 143.080446,121.415001 143.080446,121.415001 L103.382456,97.0980204 Z" id="Fill-23" fill="#4E4F64"></path>
                    <path d="M120,36.8114167 L119.477331,26.1555749 L114.374777,24.0269686 C114.452089,23.5914262 114.5,23.1462764 114.5,22.6893839 C114.5,20.9706998 113.91962,19.3918589 112.952683,18.1204596 L112.404969,9.9785937 L107.559394,6.51240273 L102.059394,6 L99.571273,9.59429165 L99.4406058,13.703121 L100.92259,16.1082114 C100.702633,16.0516336 100.470699,16.0132034 100.226787,16.0132034 C98.9963374,16.0132034 98,16.78928 98,17.7468326 C98,18.6531449 98.898337,19.3907914 100.039497,19.4644493 C99.5756286,20.4444195 99.3099386,21.5343428 99.3099386,22.6893839 C99.3099386,26.8718712 102.709463,30.2633368 106.904969,30.2633368 C106.911503,30.2633368 106.918036,30.2622693 106.924569,30.2622693 L107.167393,44 L120,36.8114167 Z" id="Fill-25" fill="#FCCEBE"></path>
                    <path d="M101.871621,75.4643569 L94,62.9843124 C94,62.9843124 103.549022,41.6419881 116.999175,38.2728301 C130.448262,34.903672 130.791852,63.8511924 130.791852,63.8511924 L137.464109,97.1320315 C137.464109,97.1320315 143.966706,113.079596 141.400453,119.83953 C138.8342,126.600544 103.411373,115.333267 103.411373,115.333267 L101.871621,75.4643569 Z" id="Fill-27" fill="#FAFBFD"></path>
                    <path d="M98.8684368,13.3425354 C99.3057956,12.5645197 99.5607384,11.7028346 99.8717248,10.8726614 C100.273919,9.80343307 100.816771,8.71355906 101.783796,8.09092913 C103.518946,6.97388976 106.496942,7.51176378 108.213411,8.4408189 C109.998011,9.40464567 110.740861,11.2562362 110.740861,13.1991024 C110.740861,19.0798583 109.947461,25.3517953 113.912262,27.966189 C117.877063,30.5794961 118.140797,38.9431654 118.140797,38.9431654 C118.140797,38.9431654 123.427564,43.1255433 124.484698,46.7841732 C125.541832,50.4428031 128.713233,60.505937 128.713233,60.505937 L132.149467,69 L134,67.8231969 L130.035199,9.67086614 C130.035199,9.67086614 124.749531,0 115.102362,0 C105.454094,0 97.2607584,4.83434646 98.0530592,13.5913701 C98.1420694,14.5693228 98.6134939,13.7978268 98.8684368,13.3425354 Z" id="Fill-29" fill="#4E4F64"></path>
                    <path d="M42,155 C42,155 44.2529049,151 49.8120069,151 C55.370033,151 61.2766461,152.430233 61.2766461,152.430233 L71.3372543,151.637043 L72,154.70598 L42,155 Z" id="Fill-31" fill="#4E4F64"></path>
                    <polygon id="Fill-33" fill="#FCCEBE" points="61.1911603 136 60.8857433 146.825668 48 150.260963 60.1178061 153 74 150.858824 71.6972872 136.247059"></polygon>
                    <path d="M28.9502565,70.7625512 C14.9992994,72.6675595 2.14251314,62.9016036 0.237473587,48.9508754 C-1.66756597,34.9990318 8.09743479,22.1424564 22.0506226,20.2374481 C36.0026951,18.3324398 48.8572506,28.0983957 50.7622902,42.0502393 C52.6684451,56.0020829 42.902329,68.8564276 28.9502565,70.7625512 Z" id="Fill-48" fill="#FBA32B"></path>
                    <path d="M47.7903935,43.456427 C49.4715463,55.7668893 40.8561987,67.1090124 28.5445565,68.7901571 C16.2340351,70.4724226 4.89073692,61.8559955 3.20958415,49.5455331 C1.52843137,37.23395 10.1448997,25.8907062 22.4565419,24.2095615 C34.7670633,22.5284168 46.1092407,31.1459646 47.7903935,43.456427 Z" id="Stroke-49" stroke="#ED4850" stroke-width="0.5"></path>
                    <path d="M26.7263098,50.0729863 C27.28822,49.8589963 27.6825788,49.5789212 27.9104078,49.2369569 C28.1392585,48.8939436 28.2281424,48.5341467 28.1780814,48.1544195 C28.1341502,47.8239938 27.9798803,47.5376249 27.7152717,47.2921658 C27.4516848,47.0477558 26.971507,46.8515983 26.278825,46.7068404 L26.7263098,50.0729863 Z M23.8605679,39.9525203 C23.4447544,40.1602164 23.1668643,40.386794 23.0248543,40.6280572 C22.8838659,40.8693204 22.8327831,41.1378568 22.8726277,41.4336664 C22.9134939,41.7431127 23.0350708,41.9980125 23.2383801,42.2025617 C23.4416894,42.4071109 23.768619,42.5560647 24.2201904,42.6494231 L23.8605679,39.9525203 Z M30.5687537,40.0804947 L26.8509517,41.2312151 C26.5945163,40.7623254 26.3758822,40.4413405 26.1970926,40.2703583 C26.0193246,40.1004251 25.7393912,39.9420306 25.3593356,39.7951747 L25.7639109,42.829846 C27.9083645,43.1057252 29.3703526,43.5095788 30.1488536,44.0435047 C31.1797033,44.7610004 31.7824797,45.7680119 31.9551394,47.0718821 C32.0573049,47.8323856 31.9847674,48.5572241 31.7395702,49.2390548 C31.494373,49.9219345 31.1419021,50.5125048 30.6852224,51.0128637 C30.2285427,51.5111246 29.7228235,51.8971457 29.1701082,52.170927 C28.6163713,52.4447082 27.9236893,52.6576492 27.0900189,52.8087009 L27.3536059,54.7912549 L25.8630114,55 L25.5984028,53.019544 C24.5859429,53.0677966 23.7522725,53.0163971 23.0963701,52.8621984 C22.442511,52.7090487 21.8591461,52.4499531 21.3503619,52.0870093 C20.8405562,51.7240656 20.4308726,51.3139182 20.1192678,50.8544692 C19.8086848,50.3971181 19.5461195,49.8264782 19.3305503,49.1435985 L23.3906067,48.0725998 C23.6051542,48.7470877 23.8380915,49.2243692 24.0863537,49.5023464 C24.3346158,49.7813725 24.7126281,50.0069011 25.2214122,50.1768343 L24.7289746,46.4708221 C23.3007011,46.2725667 22.2800679,46.0690664 21.6670749,45.8624193 C21.0530604,45.6568211 20.4931935,45.2676531 19.9864527,44.6938663 C19.4807336,44.1179816 19.1670855,43.3774085 19.0455086,42.4690002 C18.8800005,41.2217744 19.1660639,40.1235025 19.9016554,39.1678905 C20.6382685,38.2122785 21.838713,37.5724066 23.5019671,37.2461768 L23.363022,36.2087451 L24.8546381,36 L24.9925615,37.0374317 C26.5311737,36.9220449 27.7459214,37.1286921 28.6388477,37.6584221 C29.5307524,38.1892011 30.1743949,38.9958593 30.5687537,40.0804947 L30.5687537,40.0804947 Z" id="Fill-50" fill="#4A4A4A"></path>
                    <path d="M50.7810315,62 C50.7810315,62 52.7464133,53.4008386 51.6859864,52.9557302 C50.6244872,52.5106217 50.2374153,53.1908227 49.6895102,55.1844071 C49.1426773,57.1759018 45.72658,53.6819048 45.72658,53.6819048 L42.1946829,49.3624719 C42.1946829,49.3624719 40.3493899,47.9853522 39.3039741,50.5995808 C38.2564138,53.2127646 40.1681845,56.5312259 41.2307559,57.4851791 C42.2943995,58.4401771 47.4936008,61.8798416 50.7810315,62" id="Fill-54" fill="#FCCEBE"></path>
                </g>
            </g>
        </g>
    </g>
</svg>