
<svg width="260px" height="220px" viewBox="0 0 260 220" version="1.1" xmlns="http://www.w3.org/2000/svg" xmlns:xlink="http://www.w3.org/1999/xlink">
    <defs>
        <linearGradient x1="64.6185852%" y1="10.8359761%" x2="4.86576452%" y2="113.861449%" id="linearGradient-1">
            <stop stop-color="#FF3232" offset="0%"></stop>
            <stop stop-color="#9C13CA" offset="100%"></stop>
        </linearGradient>
        <polygon id="path-2" points="0.91515 0.656718644 106.71465 0.656718644 106.71465 88 0.91515 88"></polygon>
    </defs>
    <g id="Page-1" stroke="none" stroke-width="1" fill="none" fill-rule="evenodd">
        <g id="Onboarding_ronda2" transform="translate(-53.000000, -132.000000)">
            <g id="Group-7" transform="translate(20.000000, 96.000000)">
                <path d="M155.395876,199.090054 C113.080934,248.624972 58.0488161,204.765309 53.1556792,155.070975 C51.0304842,133.487654 59.5742772,108.592088 78.7870581,80.3842791 L78.7870584,80.3842794 C101.247973,47.4076272 141.162295,30.9385615 180.342066,38.4816231 C213.850587,44.9328306 236.836351,56.1635347 249.299356,72.1737355 C249.299356,72.1737355 249.299356,72.1737355 249.299356,72.1737355 C270.334022,99.1952449 265.480727,138.152472 238.459217,159.187138 C227.83984,167.453702 214.819207,172.040808 201.363316,172.255842 C185.787745,172.504699 170.465266,181.449453 155.395876,199.090054 Z" id="Rectangle-Copy-2" fill-opacity="0.1" fill="url(#linearGradient-1)"></path>
                <g id="Group-8" transform="translate(33.000000, 90.000000)">
                    <g id="Group-3" transform="translate(163.000000, 72.000000)">
                        <path d="M97,34.1401876 C97,29.0385639 93.0464921,24.8418641 87.9779581,24.3323726 C86.6335943,17.9899381 80.8997243,13.223782 74.0294347,13.223782 C72.9255332,13.223782 71.8528661,13.3508404 70.8208465,13.5835711 C69.6086941,9.83807518 67.237873,6.41378954 63.7815487,3.88142841 C54.984138,-2.56416239 42.5207472,-0.800022095 35.9439757,7.82191484 C34.9419069,9.13527054 34.1370856,10.5329125 33.5192431,11.9800359 C31.3910236,8.945312 27.8260206,6.95431173 23.7847996,6.95431173 C17.2649346,6.95431173 11.979899,12.134351 11.979899,18.5241703 C11.979899,19.6282781 12.1407777,20.6950651 12.4360071,21.7069193 C12.09414,21.6763078 11.748422,21.6586958 11.3984253,21.6586958 C5.10319137,21.6586958 0,26.6600985 0,32.8293479 C0,38.9985973 5.10319137,44 11.3984253,44 C11.5255023,44 11.6517236,43.9945487 11.7779449,43.9907746 L87.3438566,44 C92.7123266,43.7819461 97,39.4527365 97,34.1401876 Z" id="Stroke-4" fill="#EEEEEE"></path>
                        <path d="M40.0576865,3.80727804 C46.9316999,-1.17013159 56.5836672,-1.39223679 63.7815487,3.88142841 C67.237873,6.41378954 69.6086941,9.83807518 70.8208465,13.5835711 C71.8528661,13.3508404 72.9255332,13.223782 74.0294347,13.223782 C80.8997243,13.223782 86.6335943,17.9899381 87.9779581,24.3323726 C93.0464921,24.8418641 97,29.0385639 97,34.1401876 C97,35.1346027 96.8497719,36.0945644 96.5703474,36.9994933 L88.5,37 C61.7141896,37 40,22.4492544 40,4.5 C40,4.28024745 40.0032548,4.0610043 40.0097337,3.84229102 Z" id="Combined-Shape" fill="#F5F5F5"></path>
                        <path d="M23.7847996,6.95431173 C27.8260206,6.95431173 31.3910236,8.945312 33.5192431,11.9800359 C33.5092876,11.9810025 33.5047283,11.9905435 33.5,12 C32,15 31,19 31,20 C27,19.5 21.5,17.5 20.5,7.5 L20.4923644,7.41027318 C21.5373776,7.11342332 22.6421239,6.95431173 23.7847996,6.95431173 Z" id="Combined-Shape" fill="#F5F5F5"></path>
                    </g>
                    <path d="M250.999571,14.7592736 C251.035646,14.3546477 251.05669,13.9456709 251.05669,13.5319083 C251.05669,6.05851146 245.076303,0 237.699704,0 C232.088232,0 227.288462,3.5067578 225.310746,8.47364949 C223.947175,6.44747442 221.651651,5.1156896 219.048196,5.1156896 C214.864717,5.1156896 211.473611,8.55109402 211.473611,12.789224 C211.473611,13.6454646 211.617914,14.4660285 211.87302,15.2348178 C211.489931,15.1743414 211.100401,15.1334437 210.700563,15.1334437 C207.271235,15.1334437 204.377458,17.4437271 203.444646,20.6106862 C203.043949,20.5106174 202.627362,20.4514463 202.196173,20.4514463 C199.326446,20.4514463 197,22.8082834 197,25.7154987 C197,28.5752902 199.252577,30.8973207 202.057454,30.9725899 L202.057454,30.9795512 L249.742079,30.9795512 C249.955955,30.9917334 250.17155,31 250.389292,31 C255.697127,31 260,27.3601072 260,22.8705001 C260,18.5544905 256.022667,15.0259786 250.999571,14.7592736 Z" id="Stroke-2" fill="#F5F5F5"></path>
                    <path d="M81.736326,69.3845514 C81.137848,69.3845514 80.5609864,69.4741831 80.0129467,69.6321057 C79.6009633,65.6038009 76.2207494,62.4615696 72.1115114,62.4615696 C71.5168481,62.4615696 70.9391388,62.5324213 70.3817744,62.657052 C70.5135921,61.997192 70.5835276,61.3142838 70.5835276,60.6155833 C70.5835276,54.9226898 66.0008477,50.3075109 60.3475195,50.3075109 C57.2661208,50.3075109 54.5043059,51.6805832 52.6279164,53.8500972 C51.8259898,52.0519145 50.6951546,50.3659849 49.2286292,48.8887691 C42.754725,42.3704103 32.2593199,42.3704103 25.7858395,48.8887691 C22.0169541,52.6844582 20.4465851,57.852366 21.0662557,62.7949141 C20.4787978,62.6779661 19.8718428,62.6152239 19.250053,62.6152239 C15.4871014,62.6152239 12.2471824,64.8628455 10.7759946,68.095989 C9.74900299,67.5453943 8.57790194,67.2308297 7.33347462,67.2308297 C3.28357576,67.2308297 0,70.536959 0,74.6152014 C0,78.6793589 3.26111165,81.9748178 7.29151334,81.9978659 L7.29151334,82 L7.33347462,82 L81.736326,82 L82.13517,82 L82.13517,81.9799396 C85.4081495,81.7712258 88,79.0404466 88,75.6924891 C88,72.2088037 85.1958,69.3845514 81.736326,69.3845514 Z" id="Stroke-6" fill="#F5F5F5"></path>
                </g>
                <path d="" id="Path-10" stroke="#979797"></path>
                <g id="Group-3" transform="translate(80.000000, 108.000000)">
                    <g id="Group-2" transform="translate(5.000000, 7.000000)">
                        <g id="Group">
                            <g id="Group-13">
                                <path d="M49,100.341538 L21.1327226,128 L0,58.4637026 L8.6314444,54.667998 L7.01789519,46.1399474 C7.01789519,46.1399474 6.81060929,44.3783473 8.61205795,44.0388335 C10.4135066,43.6993197 11.3664252,45.697686 11.3664252,45.697686 L14.9022156,59.839627 L17.0362164,59.3646055 L18.0383468,65.4192682 L12.2313592,70.914031 L23.3800597,102.447119 L36.6672348,84.4156608 L49,100.341538 Z" id="Fill-2" fill="#F7CEBC"></path>
                                <polygon id="Fill-1" fill="#F7CEBC" points="105.941663 94.328708 121.000752 117.806182 105 130.482188 108.181498 141 137 120.151979 119.11893 84"></polygon>
                                <g id="Group-6" transform="translate(24.000000, 53.000000)">
                                    <mask id="mask-3" fill="white">
                                        <use xlink:href="#path-2"></use>
                                    </mask>
                                    <g id="Clip-5"></g>
                                    <polygon id="Fill-4" fill="#39409A" mask="url(#mask-3)" points="54.46815 0.656718644 17.56815 20.1390237 0.91515 44.4911593 12.67065 62.3491932 20.50665 53.5820068 19.52865 88.0004475 84.18465 88.0004475 84.50865 54.5559729 90.06165 59.1021424 106.71465 49.6861424 97.89765 23.3860746"></polygon>
                                </g>
                                <polygon id="Fill-7" fill="#FFFFFF" points="68.0646876 58.5290912 67 85 77.8633974 75.3678648 92 85 90.671007 58"></polygon>
                                <path d="M60.2370857,21.3300571 C60.2370857,21.3300571 57.265656,29.0825143 60.5331923,37.1321143 C63.8022091,45.1832 68.8523071,49.3580571 68.8523071,49.3580571 L69.4474814,57.7062857 L77.4704896,75 L87.2760595,57.1105143 L87.8697532,45.1832 C87.8697532,45.1832 95,36.8349714 95,33.2558857 C95,29.6782857 94.7024129,17.4538286 94.7024129,17.4538286 L75.0927536,10 L68.5562005,12.9803429 L60.2370857,21.3300571 Z" id="Fill-9" fill="#F7CEBC"></path>
                                <path d="M50.0791663,5.16027683 C50.3310475,5.52710314 49.9912315,7.30839961 50,7.81108751 C50.0165686,8.78325271 50.0821472,9.7554179 50.1969096,10.7215448 C50.4353769,12.7413539 50.8884649,14.7339906 51.5457405,16.657187 C52.6710083,19.9420184 54.7099042,22.9113491 58.3062899,23.6283964 C60.5463926,24.0737205 62.8669779,23.5212167 65.0146745,22.7362386 C69.0000601,21.2779908 72.6590435,19.0317457 76.5863027,17.4195215 C80.5135618,15.8072972 84.9296791,14.8472086 88.9806432,16.1031736 C90.1133631,16.4549041 91.2833435,17.0587334 91.7751824,18.1516645 C92.1537493,18.9970255 92.0583624,19.9722099 91.9242245,20.8900304 C91.5441672,23.4744199 90.9167,26.0784338 91.2565159,28.667352 C91.3861826,29.6697087 91.8511939,30.8350992 92.8378526,30.984547 C93.1761781,31.0358725 93.5189749,30.9513364 93.8438867,30.8486854 C98.3047166,29.4462918 101.087332,24.5099872 100.997907,19.7789845 C100.909972,15.0479818 98.419479,10.6339896 95.1539667,7.24952625 C91.9838414,3.96318522 87.974609,1.42861167 83.545078,0.4383316 C77.805467,-0.844805691 72.8691929,0.758361136 68.4143247,4.34208811 C65.8224827,6.42529924 62.5927405,7.6706972 59.3004006,7.92581508 C56.3955702,8.14923193 51.9108936,7.83825983 50.0791663,5.16027683" id="Fill-11" fill="#DB3E2F"></path>
                            </g>
                        </g>
                    </g>
                    <path d="M42.0898438,6.4375 L42.0898438,37.6679688 C42.0898438,39.6210938 40.5273438,41.1835938 38.5742188,41.1835938 L7.34375,41.1835938 C5.390625,41.1835938 3.828125,39.6210938 3.828125,37.6679688 L3.828125,6.4375 C3.828125,4.484375 5.390625,2.921875 7.34375,2.921875 L38.5742188,2.921875 C40.5273438,2.921875 42.0898438,4.484375 42.0898438,6.4375 Z M38.2617188,34.5429688 L38.2617188,9.5625 C38.2617188,8 37.0117188,6.75 35.4492188,6.75 L10.4492188,6.75 C8.88671875,6.75 7.63671875,8 7.63671875,9.5625 L7.63671875,34.5429688 C7.63671875,36.1054688 8.88671875,37.3554688 10.4492188,37.3554688 L35.4492188,37.3554688 C37.0117188,37.3554688 38.2617188,36.1054688 38.2617188,34.5429688 Z M15.3515625,17.3945312 C15.4492188,13.4882812 18.2226562,10.8515625 23.0859375,10.8515625 C27.65625,10.8515625 30.6445312,13.3125 30.6445312,16.9257812 C30.6445312,19.2304688 29.5117188,20.8515625 27.265625,22.140625 C25.1367188,23.3515625 24.5507812,24.09375 24.5507812,25.5585938 L24.5507812,26.3789062 L20.2929688,26.3789062 L20.2734375,25.578125 C20.0585938,23.0585938 20.9375,21.7109375 23.1054688,20.421875 C25.15625,19.2109375 25.7617188,18.4882812 25.7617188,17.0625 C25.7617188,15.65625 24.5703125,14.6601562 22.8125,14.6601562 C21.015625,14.6601562 19.8242188,15.734375 19.7460938,17.3945312 L15.3515625,17.3945312 Z M22.5976562,33.8789062 C20.8007812,33.8789062 19.6679688,32.8632812 19.6679688,31.203125 C19.6679688,29.5234375 20.8007812,28.5273438 22.5976562,28.5273438 C24.3945312,28.5273438 25.5078125,29.5234375 25.5078125,31.203125 C25.5078125,32.8632812 24.3945312,33.8789062 22.5976562,33.8789062 Z" id="" fill="#FBA32B" fill-rule="nonzero"></path>
                </g>
            </g>
        </g>
    </g>
</svg>